# xmcd
#
# Track frame offsets: 
#        150
#        19917
#        33874
#        54017
#        66132
#        81045
#        101258
#        119641
#        142624
#        165417
#
# Disc length: 2405 seconds
#
# Revision: 0
# Processed by: cddbd v1.5.1PL0 Copyright (c) Steve Scherf et al.
# Submitted via: ExactAudioCopy v0.90b4
#
DISCID=6d09630a
DTITLE=刀郎 - 北方的天空下
DYEAR=2004
DGENRE=
TTITLE0=北方的天空
TTITLE1=阿瓦日古丽
TTITLE2=草原之夜
TTITLE3=虹彩妹妹
TTITLE4=哪里来的骆驼队
TTITLE5=沙枣花儿香
TTITLE6=花儿为什么这样红
TTITLE7=吐鲁番的葡萄熟了
TTITLE8=怀念战友
TTITLE9=在那遥远的地方
EXTD=
EXTT0=
EXTT1=
EXTT2=
EXTT3=
EXTT4=
EXTT5=
EXTT6=
EXTT7=
EXTT8=
EXTT9=
PLAYORDER=
